<svg version="1.1" xmlns="http://www.w3.org/2000/svg" viewBox="0 0 184.51874372190377 184.51874372190383"
  width="184.51874372190377" height="184.51874372190383">
  <!-- svg-source:excalidraw -->

  <defs>
    <style class="style-fonts">
      @font-face {
        font-family: "Virgil";
        src: url("https://excalidraw.com/Virgil.woff2");
      }

      @font-face {
        font-family: "Cascadia";
        src: url("https://excalidraw.com/Cascadia.woff2");
      }
    </style>
  </defs>
  <rect x="0" y="0" width="184.51874372190377" height="184.51874372190383" fill="transparent"></rect>
  <g stroke-linecap="round" transform="translate(10 10) rotate(0 82.25937186095189 82.25937186095192)">
    <path
      d="M66.97 1.97 C77.09 -1.35, 90.88 -0.57, 101.88 1.9 C112.88 4.37, 124.19 10, 132.95 16.77 C141.72 23.54, 149.13 32.7, 154.45 42.51 C159.78 52.33, 163.89 64.36, 164.93 75.67 C165.97 86.98, 164.69 99.73, 160.68 110.36 C156.68 120.98, 148.63 131.54, 140.89 139.43 C133.16 147.31, 124.53 153.43, 114.27 157.68 C104.02 161.93, 90.66 165.08, 79.36 164.91 C68.06 164.75, 56.44 161.73, 46.47 156.7 C36.5 151.67, 26.63 143.38, 19.53 134.74 C12.43 126.09, 7.08 115.22, 3.86 104.83 C0.64 94.44, -1.32 83.24, 0.22 72.42 C1.76 61.59, 7.23 49.67, 13.1 39.89 C18.97 30.11, 25.76 20.18, 35.45 13.74 C45.14 7.3, 64.67 3.14, 71.23 1.25 C77.78 -0.63, 74.63 1.06, 74.8 2.42 M110.43 3.6 C121.05 5.93, 130.66 13.31, 138.79 21.21 C146.92 29.11, 155.02 40.43, 159.24 51.02 C163.46 61.61, 164.45 73.63, 164.09 84.74 C163.74 95.85, 161.8 107.64, 157.12 117.68 C152.44 127.72, 144.3 137.79, 136.01 144.99 C127.73 152.18, 118.15 157.76, 107.41 160.85 C96.67 163.94, 82.85 165.16, 71.59 163.54 C60.33 161.91, 49.16 156.9, 39.85 151.09 C30.54 145.27, 22.32 137.61, 15.75 128.65 C9.17 119.69, 2.86 108.15, 0.43 97.33 C-2 86.5, -1.47 74.74, 1.17 63.72 C3.81 52.69, 9.57 40.29, 16.27 31.18 C22.96 22.06, 31.37 14.09, 41.32 9.03 C51.27 3.97, 64.53 1.52, 75.97 0.85 C87.41 0.17, 104.35 4.24, 109.95 5 C115.55 5.76, 109.98 4.11, 109.56 5.4"
      stroke="none" stroke-width="0" fill="white"></path>
    <path
      d="M56.68 3.81 C66.41 -0.54, 79.99 -0.47, 91.18 0.83 C102.37 2.12, 114.12 6.02, 123.8 11.59 C133.48 17.16, 142.94 25.54, 149.28 34.26 C155.62 42.98, 159.6 53.05, 161.86 63.91 C164.12 74.78, 164.85 88.32, 162.86 99.43 C160.88 110.55, 156.44 121.62, 149.94 130.61 C143.43 139.59, 133.69 147.65, 123.85 153.35 C114.02 159.05, 102.06 163.66, 90.92 164.81 C79.78 165.96, 67.59 163.8, 57.02 160.27 C46.45 156.75, 35.85 151.1, 27.49 143.65 C19.13 136.19, 11.3 125.65, 6.85 115.54 C2.4 105.43, 0.88 94.11, 0.8 82.96 C0.72 71.81, 2.08 59.1, 6.38 48.67 C10.68 38.23, 16.71 28.2, 26.58 20.35 C36.46 12.5, 57.73 4.63, 65.63 1.59 C73.54 -1.45, 73.99 0.79, 74 2.12 M101.3 3.79 C111.77 5.24, 124.02 10.15, 132.96 16.72 C141.9 23.3, 149.82 33.27, 154.93 43.24 C160.04 53.21, 163.02 65.49, 163.61 76.52 C164.2 87.55, 161.96 98.89, 158.47 109.4 C154.98 119.91, 150.06 131.16, 142.67 139.57 C135.29 147.97, 124.54 155.89, 114.16 159.82 C103.78 163.74, 91.79 163.69, 80.41 163.12 C69.03 162.55, 55.91 161.09, 45.88 156.39 C35.86 151.7, 27.45 143.61, 20.26 134.94 C13.08 126.27, 6.21 115.32, 2.76 104.36 C-0.68 93.41, -1.9 80.06, -0.39 69.19 C1.13 58.33, 5.86 48.29, 11.84 39.17 C17.83 30.05, 26.1 20.84, 35.52 14.47 C44.94 8.09, 57.33 3.08, 68.37 0.93 C79.41 -1.22, 96.01 1.09, 101.76 1.58 C107.52 2.08, 102.87 2.62, 102.89 3.92"
      stroke="#000000" stroke-width="1" fill="none"></path>
  </g>
  <g stroke-linecap="round"
    transform="translate(64.92573093320743 40.60020456265022) rotate(0 29.17390791963578 29.17390791963581)">
    <path
      d="M17.39 2.9 C22.55 -0.06, 30.43 -0.65, 36.21 0.75 C41.99 2.16, 48.49 6.14, 52.07 11.33 C55.65 16.53, 58.16 25.5, 57.71 31.94 C57.25 38.38, 53.61 45.63, 49.34 49.98 C45.07 54.33, 38.25 57.6, 32.06 58.04 C25.87 58.47, 17.29 56.14, 12.21 52.62 C7.13 49.09, 3.06 42.93, 1.61 36.89 C0.17 30.84, -0.37 22.58, 3.54 16.37 C7.45 10.16, 20 2.05, 25.05 -0.37 C30.1 -2.8, 33.66 1.29, 33.85 1.82 M38.69 0.91 C44.35 2.28, 50.13 7.3, 53.53 12.57 C56.93 17.85, 59.63 26.09, 59.1 32.57 C58.56 39.05, 55.32 47.05, 50.32 51.46 C45.31 55.88, 35.39 59.04, 29.07 59.04 C22.75 59.04, 17.29 55.27, 12.4 51.46 C7.51 47.66, 1.31 42.11, -0.29 36.22 C-1.89 30.33, -0.21 22.01, 2.8 16.13 C5.8 10.25, 11.76 3.58, 17.73 0.93 C23.69 -1.71, 35.4 -0.15, 38.6 0.25 C41.81 0.65, 36.98 2.53, 36.95 3.34"
      stroke="none" stroke-width="0" fill="#fccc4c"></path>
    <path
      d="M32.8 0.83 C38.89 1.36, 46.79 5.55, 51.16 10.18 C55.53 14.81, 58.75 22.63, 59.02 28.64 C59.29 34.64, 56.91 41.36, 52.8 46.22 C48.69 51.07, 40.52 56.14, 34.38 57.77 C28.23 59.4, 21.25 58.86, 15.92 55.98 C10.58 53.1, 4.8 46.46, 2.38 40.48 C-0.05 34.5, -0.64 26.1, 1.36 20.1 C3.36 14.1, 8.69 7.66, 14.37 4.45 C20.04 1.24, 31.44 1.29, 35.4 0.82 C39.37 0.35, 38.28 1.05, 38.16 1.64 M35.02 -0.68 C41.24 0.3, 49.6 5.95, 53.61 11.17 C57.63 16.4, 59.83 24.42, 59.1 30.65 C58.36 36.88, 53.46 43.91, 49.2 48.56 C44.93 53.21, 39.71 57.91, 33.52 58.57 C27.33 59.22, 17.23 55.98, 12.07 52.48 C6.91 48.97, 4.34 43.33, 2.56 37.54 C0.77 31.74, -0.73 23.55, 1.38 17.7 C3.48 11.86, 9.53 5.46, 15.19 2.47 C20.85 -0.52, 32.18 -0.28, 35.36 -0.23 C38.53 -0.18, 34.31 1.91, 34.25 2.78"
      stroke="#000000" stroke-width="1" fill="none"></path>
  </g>
  <g stroke-linecap="round">
    <g transform="translate(36.121500609004215 136.33833859625793) rotate(0 56.82643597391893 -0.06314019279042782)"
      fill-rule="evenodd">
      <path
        d="M-0.59 0.17 L25.17 -20.45 L39.66 -25.02 L58.19 -30.95 L75.15 -26.81 L91.1 -17.24 L106.03 -10.09 L111.41 -8.56 L112.92 -1.05 L112.73 1.79 L106.35 11.31 L96.2 19.07 L83.94 25.28 L69.5 28.79 L55.56 28.34 L45.6 28.39 L33.73 25.79 L22.67 16.06 L-0.02 0.46"
        stroke="none" stroke-width="0" fill="#fccc4c" fill-rule="evenodd"></path>
      <path
        d="M-0.76 0.32 C3.43 -3.13, 14.78 -14.74, 24.39 -19.63 C34.01 -24.51, 45.42 -29.27, 56.93 -29 C68.45 -28.74, 83.9 -22.66, 93.48 -18.04 C103.05 -13.42, 113.78 -7.53, 114.39 -1.3 C115 4.93, 104.66 14.22, 97.14 19.33 C89.62 24.44, 78.13 27.63, 69.28 29.35 C60.42 31.07, 52.04 31.54, 44.01 29.67 C35.98 27.8, 28.44 23.12, 21.1 18.14 C13.76 13.16, 3.33 2.81, -0.03 -0.23 M1.04 -0.55 C5.69 -3.28, 17.63 -12.97, 26.79 -18.04 C35.95 -23.11, 44.78 -30.62, 55.98 -30.98 C67.18 -31.34, 84.42 -25.28, 93.98 -20.2 C103.54 -15.12, 113.14 -7.46, 113.35 -0.52 C113.57 6.42, 102.59 16.68, 95.24 21.44 C87.9 26.2, 77.97 26.64, 69.29 28.06 C60.62 29.48, 51.48 31.81, 43.19 29.95 C34.9 28.09, 26.63 22.03, 19.55 16.91 C12.48 11.79, 3.69 1.87, 0.72 -0.8"
        stroke="#000000" stroke-width="1" fill="none"></path>
    </g>
  </g>
</svg>